{"title":"Playing.It.Cool.2014.BRRip.XviD.AC3-playXD","uid":11696277,"size":1549955081,"categoryP":"video","categoryS":"movies","magnet":"?xt=urn:btih:96e0ef2f8053bfbf44097c5f6551066969cc28c2&amp;dn=Playing.It.Cool.2014.BRRip.XviD.AC3-playXD&amp;tr=udp%3A%2F%2Ftracker.openbittorrent.com%3A80&amp;tr=udp%3A%2F%2Fopen.demonii.com%3A1337&amp;tr=udp%3A%2F%2Ftracker.coppersurfer.tk%3A6969&amp;tr=udp%3A%2F%2Fexodus.desync.com%3A6969","seeders":0,"leechers":1,"uploader":"TvTeam","files":3,"time":1423726189,"description":" &lt;a href=&quot;https://www.torrenting.com&quot; rel=&quot;nofollow&quot; target=&quot;_NEW&quot;&gt;https://www.torrenting.com&lt;/a&gt;\n\nSign up is OPEN - for the time being. Come and have fun.\n\n---------------------------------------------------------------------\n\n.General\nComplete name               : Playing.It.Cool.2014.BRRip.XviD.AC3-playXD.avi\nFormat                      : AVI\nFormat/Info                 : Audio Video Interleave\nFormat profile              : OpenDML\nFile size                   : 1.44 GiB\nDuration                    : 1h 34mn\nOverall bit rate            : 2 182 Kbps\nWriting application         : Lavf51.12.1\n\nVideo\nID                          : 0\nFormat                      : AVC\nFormat/Info                 : Advanced Video Codec\nFormat profile              : &lt;a class=&quot;__cf_email__&quot; href=&quot;/cdn-cgi/l/email-protection&quot; data-cfemail=&quot;32705341575e5b5c57727e011c02&quot;&gt;[email&amp;#160;protected]&lt;/a&gt;&lt;script cf-hash='f9e31' type=&quot;text/javascript&quot;&gt;\n/* &lt;![CDATA[ */!function(){try{var t=&quot;currentScript&quot;in document?document.currentScript:function(){for(var t=document.getElementsByTagName(&quot;script&quot;),e=t.length;e--;)if(t[e].getAttribute(&quot;cf-hash&quot;))return t[e]}();if(t&amp;&amp;t.previousSibling){var e,r,n,i,c=t.previousSibling,a=c.getAttribute(&quot;data-cfemail&quot;);if(a){for(e=&quot;&quot;,r=parseInt(a.substr(0,2),16),n=2;a.length-n;n+=2)i=parseInt(a.substr(n,2),16)^r,e+=String.fromCharCode(i);e=document.createTextNode(e),c.parentNode.replaceChild(e,c)}}}catch(u){}}();/* ]]&gt; */&lt;/script&gt;\nFormat settings, CABAC      : No\nFormat settings, ReFrames   : 1 frame\nFormat settings, GOP        : M=1, N=12\nCodec ID                    : H264\nDuration                    : 1h 34mn\nBit rate                    : 1 786 Kbps\nWidth                       : 720 pixels\nHeight                      : 304 pixels\nDisplay aspect ratio        : 2.40:1\nFrame rate mode             : Variable\nFrame rate                  : 23.976 fps\nColor space                 : YUV\nChroma subsampling          : 4:2:0\nBit depth                   : 8 bits\nScan type                   : Progressive\nBits/(Pixel*Frame)          : 0.340\nStream size                 : 1.18 GiB (82%)\n\nAudio\nID                          : 1\nFormat                      : AC-3\nFormat/Info                 : Audio Coding 3\nMode extension              : CM (complete main)\nFormat settings, Endianness : Big\nCodec ID                    : 2000\nDuration                    : 1h 34mn\nBit rate mode               : Constant\nBit rate                    : 384 Kbps\nChannel(s)                  : 6 channels\nChannel positions           : Front: L C R, Side: L R, LFE\nSampling rate               : 48.0 KHz\nBit depth                   : 16 bits\nCompression mode            : Lossy\nStream size                 : 260 MiB (18%)\nAlignment                   : Aligned on interleaves\nInterleave, duration        : 32 ms (0.77 video frame)\nInterleave, preload duratio : 32 ms","torrent":{"xt":"urn:btih:96e0ef2f8053bfbf44097c5f6551066969cc28c2","amp;dn":"Playing.It.Cool.2014.BRRip.XviD.AC3-playXD","amp;tr":["udp%3A%2F%2Ftracker.openbittorrent.com%3A80","udp%3A%2F%2Fopen.demonii.com%3A1337","udp%3A%2F%2Ftracker.coppersurfer.tk%3A6969","udp%3A%2F%2Fexodus.desync.com%3A6969"],"infoHash":"96e0ef2f8053bfbf44097c5f6551066969cc28c2","infoHashBuffer":{"type":"Buffer","data":[150,224,239,47,128,83,191,191,68,9,124,95,101,81,6,105,105,204,40,194]},"announce":[],"urlList":[]}}